<?xml version="1.0" encoding="UTF-8" standalone="no"?>
<!-- Created with Inkscape (http://www.inkscape.org/) -->

<svg
   width="31.982124mm"
   height="12.02916mm"
   viewBox="0 0 31.982124 12.02916"
   version="1.1"
   id="svg5"
   xml:space="preserve"
   inkscape:version="1.2.2 (732a01da63, 2022-12-09)"
   sodipodi:docname="Satisfaction_full.svg"
   xmlns:inkscape="http://www.inkscape.org/namespaces/inkscape"
   xmlns:sodipodi="http://sodipodi.sourceforge.net/DTD/sodipodi-0.dtd"
   xmlns:xlink="http://www.w3.org/1999/xlink"
   xmlns="http://www.w3.org/2000/svg"
   xmlns:svg="http://www.w3.org/2000/svg"><sodipodi:namedview
     id="namedview7"
     pagecolor="#505050"
     bordercolor="#eeeeee"
     borderopacity="1"
     inkscape:showpageshadow="0"
     inkscape:pageopacity="0"
     inkscape:pagecheckerboard="0"
     inkscape:deskcolor="#505050"
     inkscape:document-units="mm"
     showgrid="false"
     inkscape:zoom="1.1376503"
     inkscape:cx="473.34405"
     inkscape:cy="804.28934"
     inkscape:window-width="1920"
     inkscape:window-height="1057"
     inkscape:window-x="1912"
     inkscape:window-y="-8"
     inkscape:window-maximized="1"
     inkscape:current-layer="layer1" /><defs
     id="defs2"><linearGradient
       id="SvgjsLinearGradient1043"><stop
         id="SvgjsStop1044"
         stop-color="#b88746"
         offset="0" /><stop
         id="SvgjsStop1045"
         stop-color="#c2b95b"
         offset="1" /></linearGradient><linearGradient
       inkscape:collect="always"
       xlink:href="#SvgjsLinearGradient1043"
       id="linearGradient1034"
       x1="10"
       y1="10"
       x2="90"
       y2="10"
       gradientUnits="userSpaceOnUse" /><linearGradient
       inkscape:collect="always"
       xlink:href="#SvgjsLinearGradient1043"
       id="linearGradient1036"
       x1="10"
       y1="10"
       x2="90"
       y2="10"
       gradientUnits="userSpaceOnUse" /><linearGradient
       inkscape:collect="always"
       xlink:href="#SvgjsLinearGradient1043"
       id="linearGradient1038"
       gradientTransform="scale(0.80316018,1.2450816)"
       x1="2.7889829"
       y1="10.633841"
       x2="24.602814"
       y2="10.633841"
       gradientUnits="userSpaceOnUse" /><linearGradient
       inkscape:collect="always"
       xlink:href="#SvgjsLinearGradient1043"
       id="linearGradient1040"
       gradientTransform="scale(0.80316018,1.2450816)"
       x1="2.7889829"
       y1="10.633841"
       x2="24.602814"
       y2="10.633841"
       gradientUnits="userSpaceOnUse" /><linearGradient
       inkscape:collect="always"
       xlink:href="#SvgjsLinearGradient1043"
       id="linearGradient1042"
       gradientTransform="scale(0.94868508,1.0540906)"
       x1="6.2043772"
       y1="4.5171914"
       x2="27.526522"
       y2="4.5171914"
       gradientUnits="userSpaceOnUse" /><linearGradient
       inkscape:collect="always"
       xlink:href="#SvgjsLinearGradient1043"
       id="linearGradient1044"
       gradientTransform="scale(0.94868508,1.0540906)"
       x1="6.2043772"
       y1="4.5171914"
       x2="27.526522"
       y2="4.5171914"
       gradientUnits="userSpaceOnUse" /><linearGradient
       inkscape:collect="always"
       xlink:href="#SvgjsLinearGradient1043"
       id="linearGradient1046"
       gradientTransform="scale(2.916423,0.34288579)"
       x1="0.63090986"
       y1="38.613441"
       x2="79.840958"
       y2="38.613441"
       gradientUnits="userSpaceOnUse" /><linearGradient
       inkscape:collect="always"
       xlink:href="#SvgjsLinearGradient1043"
       id="linearGradient1048"
       gradientTransform="scale(2.916423,0.34288579)"
       x1="0.63090986"
       y1="38.613441"
       x2="79.840958"
       y2="38.613441"
       gradientUnits="userSpaceOnUse" /></defs><g
     inkscape:label="Calque 1"
     inkscape:groupmode="layer"
     id="layer1"
     transform="translate(-99.225275,-234.69538)"><g
       id="g1032"
       transform="matrix(0.18067406,0,0,0.18067406,90.191572,216.4473)"
       inkscape:export-filename="satisfactionZ_no_round.svg"
       inkscape:export-xdpi="96"
       inkscape:export-ydpi="96"><g
         id="SvgjsG1034-9"
         featurekey="symbolFeature-0"
         transform="matrix(0.37303427,0,0,0.37303427,120.26966,97.269657)"
         fill="url(#SvgjsLinearGradient1046)"
         style="fill:url(#linearGradient1036)"><path
           d="M 50,10 10,90 H 90 Z M 50,24.909 72.546,70 H 42.36 l 3.333,-6.667 H 61.757 L 50,39.814 31.575,76.667 h 44.304 l 3.333,6.666 H 20.788 Z"
           id="path1008"
           style="fill:url(#linearGradient1034)" /></g><g
         id="SvgjsG1035-6"
         featurekey="nameLeftFeature-0"
         transform="matrix(0.61043082,0,0,0.61043082,48.632635,142.9179)"
         fill="url(#SvgjsLinearGradient1049)"
         style="fill:url(#linearGradient1040)"><path
           d="m 12.76,23.8 c 3.04,1.44 7,3.72 7,7.84 0,1.2 -0.2,3.52 -1.52,5.48 -1.48,2.2 -3.8,3.28 -7,3.28 -3.4,0 -7.36,-1.64 -8.6,-5.36 -0.04,-0.12 0,-0.24 0.12,-0.32 l 3.68,-3.16 c 0.16,-0.12 0.4,-0.12 0.52,0.08 0.08,0.2 0.24,0.52 0.44,0.92 0.6,1.24 2.04,2.48 3.64,2.48 1.24,0 2.92,-0.68 2.92,-2.6 0,-1.84 -2.52,-2.88 -4.08,-3.48 -1.8,-0.72 -3.64,-1.64 -5.2,-3 -1.64,-1.52 -2.44,-3.2 -2.44,-5.2 0,-5 4.6,-7.52 8.96,-7.52 3.44,0 6,1.8 7.68,5.36 0.08,0.16 0,0.36 -0.12,0.44 l -3.56,2.48 c -0.16,0.08 -0.24,0.08 -0.4,-0.12 -1.36,-1.96 -2.56,-2.88 -4.16,-2.88 -0.84,0 -2.8,0.32 -2.8,1.8 0,1.8 3.32,2.72 4.92,3.48 z M 5.48,34.84 c 1,2 3.76,3.16 6,3.16 2.92,0 5.28,-2 5.6,-5.04 0.4,-3.72 -2.52,-5.32 -5.4,-6.76 L 10.4,25.64 C 7.44,24.32 5.28,23.32 5.28,20.56 c 0,-3.04 2.8,-4.44 5.56,-4.44 2.52,0 3.84,1.48 4.52,2.4 0.24,0.32 0.64,0.04 0.4,-0.28 -0.68,-0.84 -2.12,-2.6 -4.92,-2.6 -3.16,0 -6.04,1.56 -6.04,4.92 0,3 2.4,4.16 5.44,5.56 l 1.24,0.6 c 3.96,1.88 5.4,3.64 5.08,6.2 -0.6,4.08 -3.72,4.6 -5.08,4.6 -3,0 -5,-1.8 -5.6,-2.92 -0.2,-0.2 -0.48,0 -0.4,0.24 z"
           id="path1011"
           style="fill:url(#linearGradient1038)" /></g><g
         id="SvgjsG1036-0"
         featurekey="inlineSymbolFeature-0"
         transform="matrix(0.73766199,0,0,0.73766199,61.658122,147.4876)"
         fill="url(#SvgjsLinearGradient1052)"
         style="fill:url(#linearGradient1044)"><path
           d="m 21.11,21.157 h 5.002 V 14.29 C 26.084,12.584 25.502,10.483 23.94,8.449 22.401,6.435 19.625,4.729 16.001,4.762 12.374,4.731 9.598,6.437 8.06,8.45 6.498,10.484 5.915,12.586 5.886,14.292 v 6.866 h 5 v -6.866 c -0.027,-0.377 0.303,-1.789 1.099,-2.748 0.819,-0.979 1.848,-1.747 4.014,-1.778 2.165,0.032 3.195,0.799 4.013,1.778 0.798,0.959 1.126,2.372 1.099,2.748 v 6.865 z m 5.002,6.079 c 0,0 0,-2.354 0,-5.079 H 21.11 c 0,2.727 0,5.08 0,5.08 l 5.004,-10e-4 z M 5.886,27.237 h 5 c 0,0 0,-2.354 0,-5.08 h -5 c 0,2.727 0,5.08 0,5.08 z"
           id="path1014"
           style="fill:url(#linearGradient1042)" /></g><g
         id="SvgjsG1037-5"
         featurekey="nameRightFeature-0"
         transform="matrix(0.61043074,0,0,0.61043074,84.876807,142.9179)"
         fill="url(#SvgjsLinearGradient1055)"
         style="fill:url(#linearGradient1048)"><path
           d="M 7.88,18.6 H 2.2 C 2,18.6 1.84,18.44 1.84,18.24 V 13.96 C 1.84,13.76 2,13.6 2.2,13.6 h 16.68 c 0.2,0 0.36,0.16 0.36,0.36 v 4.28 c 0,0.2 -0.16,0.36 -0.36,0.36 H 13.2 v 21.04 c 0,0.2 -0.16,0.36 -0.36,0.36 H 8.24 C 8.04,40 7.88,39.84 7.88,39.64 Z m 8.56,-2.8 H 4.36 c -0.28,0 -0.28,0.52 0,0.52 h 5.92 v 21.2 c 0,0.28 0.52,0.28 0.52,0 v -21.2 h 5.64 c 0.4,0 0.36,-0.52 0,-0.52 z M 25.909,40 c -0.2,0 -0.32,-0.16 -0.32,-0.36 V 13.96 c 0,-0.2 0.12,-0.36 0.32,-0.36 h 4.56 c 0.2,0 0.36,0.16 0.36,0.36 v 25.68 c 0,0.2 -0.16,0.36 -0.36,0.36 z m 2.08,-24 v 21.56 c 0,0.36 0.44,0.36 0.44,0 V 16 c 0,-0.28 -0.44,-0.28 -0.44,0 z m 19.949,7.8 c 3.04,1.44 7,3.72 7,7.84 0,1.2 -0.2,3.52 -1.52,5.48 -1.48,2.2 -3.8,3.28 -7,3.28 -3.4,0 -7.36,-1.64 -8.6,-5.36 -0.04,-0.12 0,-0.24 0.12,-0.32 l 3.68,-3.16 c 0.16,-0.12 0.4,-0.12 0.52,0.08 0.08,0.2 0.24,0.52 0.44,0.92 0.6,1.24 2.04,2.48 3.64,2.48 1.24,0 2.92,-0.68 2.92,-2.6 0,-1.84 -2.52,-2.88 -4.08,-3.48 -1.8,-0.72 -3.64,-1.64 -5.2,-3 -1.64,-1.52 -2.44,-3.2 -2.44,-5.2 0,-5 4.6,-7.52 8.96,-7.52 3.44,0 6,1.8 7.68,5.36 0.08,0.16 0,0.36 -0.12,0.44 l -3.56,2.48 c -0.16,0.08 -0.24,0.08 -0.4,-0.12 -1.36,-1.96 -2.56,-2.88 -4.16,-2.88 -0.84,0 -2.8,0.32 -2.8,1.8 0,1.8 3.32,2.72 4.92,3.48 z m -7.28,11.04 c 1,2 3.76,3.16 6,3.16 2.92,0 5.28,-2 5.6,-5.04 0.4,-3.72 -2.52,-5.32 -5.4,-6.76 l -1.28,-0.56 c -2.96,-1.32 -5.12,-2.32 -5.12,-5.08 0,-3.04 2.8,-4.44 5.56,-4.44 2.52,0 3.84,1.48 4.52,2.4 0.24,0.32 0.64,0.04 0.4,-0.28 -0.68,-0.84 -2.12,-2.6 -4.92,-2.6 -3.16,0 -6.04,1.56 -6.04,4.92 0,3 2.4,4.16 5.44,5.56 l 1.24,0.6 c 3.96,1.88 5.4,3.64 5.08,6.2 -0.6,4.08 -3.72,4.6 -5.08,4.6 -3,0 -5,-1.8 -5.6,-2.92 -0.2,-0.2 -0.48,0 -0.4,0.24 z M 64.087,16 v 21.56 c 0,0.28 0.48,0.36 0.48,0 V 26.8 h 7.36 c 0.4,0 0.4,-0.56 0,-0.56 h -7.36 v -9.92 h 8.96 c 0.28,0 0.36,-0.52 0,-0.52 h -9.2 c -0.12,0 -0.24,0.04 -0.24,0.2 z m 2.52,24 h -4.6 c -0.2,0 -0.32,-0.16 -0.32,-0.36 V 13.96 c 0,-0.2 0.12,-0.36 0.32,-0.36 h 13.6 c 0.2,0 0.36,0.16 0.36,0.36 v 4.28 c 0,0.2 -0.16,0.36 -0.36,0.36 h -8.64 v 5.44 h 6.72 c 0.2,0 0.32,0.16 0.32,0.36 v 4.36 c 0,0.2 -0.12,0.36 -0.32,0.36 h -6.72 v 10.52 c 0,0.2 -0.16,0.36 -0.36,0.36 z M 87.316,13.84 c 0.04,-0.12 0.12,-0.24 0.28,-0.24 h 4.96 c 0.16,0 0.24,0.12 0.28,0.24 l 6.92,25.72 c 0.04,0.24 -0.12,0.44 -0.36,0.44 h -4.56 c -0.12,0 -0.24,-0.08 -0.28,-0.24 l -1.56,-5.6 h -5.84 l -1.52,5.6 c -0.04,0.16 -0.12,0.24 -0.28,0.24 h -4.6 c -0.24,0 -0.4,-0.2 -0.36,-0.44 z m 1.12,15.36 h 3.32 l -1.72,-6.04 z m 6.16,2.36 1.84,6 c 0.08,0.24 0.52,0.2 0.4,-0.12 l -6.4,-21.28 c -0.12,-0.52 -0.8,-0.56 -0.92,0 l -6.2,21.28 c -0.12,0.28 0.32,0.4 0.44,0.16 l 1.76,-6.04 z m -8.96,-0.52 4.36,-14.72 4.44,14.72 z m 32.989,-0.28 v -1.24 c 0,-0.2 0.16,-0.36 0.36,-0.36 h 4.56 c 0.2,0 0.36,0.16 0.36,0.36 v 2.52 c 0,5.88 -3.16,8.36 -9.12,8.36 -5.56,0 -9.2,-2.2 -9.2,-8.36 V 21.52 c 0,-5.92 3.24,-8.28 9.2,-8.28 5.64,0 9.12,2.16 9.12,8.28 v 0.84 c 0,0.2 -0.16,0.36 -0.36,0.36 h -4.6 c -0.2,0 -0.36,-0.16 -0.36,-0.36 v -0.64 c 0,-2.2 -1.64,-3.12 -3.6,-3.12 h -0.48 c -1.32,0 -2.2,0.36 -2.8,1.16 -0.56,0.76 -0.76,1.76 -0.76,3.08 v 7.92 c 0,3.48 1.96,4.24 3.56,4.24 h 0.48 c 2.52,0 3.56,-1.68 3.64,-4.24 z m -3.92,-15.04 c -4.28,0 -6.76,1.52 -6.76,6.4 v 9.64 c 0,4.44 2.28,6.08 6.76,6.08 4.2,0 6.72,-1.52 6.72,-6.12 0,-0.32 -0.48,-0.32 -0.48,0 0,4.04 -2.2,5.68 -6.24,5.68 -3.92,0 -6.32,-1.36 -6.32,-5.64 v -9.64 c 0,-4.16 1.96,-5.96 6.32,-5.96 5.68,0 5.88,3.6 5.88,4 0,0.36 0.56,0.4 0.56,0 0,-3.32 -3.36,-4.44 -6.44,-4.44 z m 20.829,2.88 h -5.68 c -0.2,0 -0.36,-0.16 -0.36,-0.36 v -4.28 c 0,-0.2 0.16,-0.36 0.36,-0.36 h 16.68 c 0.2,0 0.36,0.16 0.36,0.36 v 4.28 c 0,0.2 -0.16,0.36 -0.36,0.36 h -5.68 v 21.04 c 0,0.2 -0.16,0.36 -0.36,0.36 h -4.6 c -0.2,0 -0.36,-0.16 -0.36,-0.36 z m 8.56,-2.8 h -12.08 c -0.28,0 -0.28,0.52 0,0.52 h 5.92 v 21.2 c 0,0.28 0.52,0.28 0.52,0 v -21.2 h 5.64 c 0.4,0 0.36,-0.52 0,-0.52 z m 9.469,24.2 c -0.2,0 -0.32,-0.16 -0.32,-0.36 V 13.96 c 0,-0.2 0.12,-0.36 0.32,-0.36 h 4.56 c 0.2,0 0.36,0.16 0.36,0.36 v 25.68 c 0,0.2 -0.16,0.36 -0.36,0.36 z m 2.08,-24 v 21.56 c 0,0.36 0.44,0.36 0.44,0 V 16 c 0,-0.28 -0.44,-0.28 -0.44,0 z m 19.629,-2.76 c 3.44,0 5.84,0.76 7.36,2.4 1.2,1.32 1.76,3.2 1.76,5.88 v 10.52 c 0,2.76 -0.56,4.68 -1.76,5.96 -1.56,1.6 -3.92,2.4 -7.36,2.4 -3.56,0 -5.88,-0.8 -7.4,-2.4 -1.16,-1.28 -1.8,-3.2 -1.8,-5.96 V 21.52 c 0,-2.68 0.64,-4.56 1.8,-5.92 1.56,-1.6 3.92,-2.36 7.4,-2.36 z m 3.8,17.6 v -8 c 0,-3.52 -1.88,-4.24 -3.6,-4.24 h -0.48 c -2.56,0 -3.56,1.64 -3.56,4.24 v 8 c 0,3.52 1.88,4.28 3.56,4.28 h 0.48 c 2.56,0 3.56,-1.72 3.6,-4.28 z m -10.48,-9.04 v 9.92 c 0,1.88 0.48,3.44 1.6,4.6 1.04,1.04 2.64,1.6 4.6,1.6 h 1.04 c 3.76,0 6.2,-2.4 6.2,-6.2 V 21.8 c 0,-4.08 -2.16,-6.28 -6.2,-6.28 h -1.04 c -4.08,0 -6.2,2.2 -6.2,6.28 z m 7.24,15.6 h -1.04 c -1.88,0 -3.28,-0.48 -4.28,-1.48 -1,-1 -1.52,-2.4 -1.52,-4.2 V 21.8 c 0,-3.8 2.04,-5.8 5.8,-5.8 h 1.04 c 3.8,0 5.68,1.96 5.68,5.8 v 9.92 c 0,1.68 -0.52,3.2 -1.6,4.24 -1.04,0.88 -2.44,1.44 -4.08,1.44 z m 27.229,-23.44 c 0,-0.2 0.16,-0.36 0.36,-0.36 h 4.6 c 0.2,0 0.36,0.16 0.36,0.36 v 25.68 c 0,0.2 -0.16,0.36 -0.36,0.36 h -4.44 c -0.16,0 -0.32,-0.08 -0.36,-0.2 l -5.84,-13.16 v 13 c 0,0.2 -0.16,0.36 -0.36,0.36 h -4.56 c -0.2,0 -0.32,-0.16 -0.32,-0.36 V 13.96 c 0,-0.2 0.12,-0.36 0.32,-0.36 h 4.72 c 0.16,0 0.24,0.12 0.28,0.2 l 5.6,12.92 z m 2.88,23.64 V 16 c 0,-0.28 -0.52,-0.36 -0.52,0 v 20.56 l -10.44,-20.64 c -0.12,-0.16 -0.44,-0.16 -0.44,0.08 v 21.56 c 0,0.36 0.48,0.36 0.48,0 V 17.04 l 10.4,20.6 c 0.16,0.28 0.52,0.2 0.52,-0.04 z M 223.09,35 h 9.4 c 0.2,0 0.36,0.16 0.36,0.36 v 4.28 c 0,0.2 -0.16,0.36 -0.36,0.36 h -15.44 c -0.16,0 -0.36,-0.08 -0.36,-0.36 V 35.2 c 0,0 0,-0.04 0.04,-0.16 l 9.64,-16.44 h -9.44 c -0.2,0 -0.36,-0.16 -0.36,-0.36 v -4.28 c 0,-0.2 0.16,-0.36 0.36,-0.36 h 15.56 c 0.24,0 0.28,0.24 0.28,0.32 v 4.48 c 0,0.04 0,0.12 -0.04,0.16 z m -3.92,-19.2 c -0.28,0 -0.24,0.52 0,0.52 h 10.8 c 0.28,0 0.32,0.08 0.2,0.28 l -11.52,20.12 c -0.2,0.4 0,1.04 0.6,1.04 h 10.92 c 0.32,0 0.32,-0.52 0,-0.52 h -10.92 c -0.16,0 -0.2,-0.12 -0.16,-0.28 L 230.57,16.8 c 0.4,-0.68 0.08,-1 -0.4,-1 z"
           id="path1017"
           style="fill:url(#linearGradient1046)" /></g></g></g></svg>
